<svg id="Layer_1_copy" height="512" viewBox="0 0 64 64" width="512" xmlns="http://www.w3.org/2000/svg" xmlns:xlink="http://www.w3.org/1999/xlink" data-name="Layer 1 copy"><linearGradient id="linear-gradient" gradientUnits="userSpaceOnUse" x1="58.167" x2="-5.92" y1="-6.167" y2="57.92"><stop offset="0" stop-color="#f7941e"/><stop offset="1" stop-color="#ee2a7b"/></linearGradient><linearGradient id="linear-gradient-2" x1="61.167" x2="-2.92" xlink:href="#linear-gradient" y1="-3.167" y2="60.92"/><linearGradient id="linear-gradient-3" x1="64.917" x2=".83" xlink:href="#linear-gradient" y1=".583" y2="64.67"/><linearGradient id="linear-gradient-4" x1="80.167" x2="16.08" xlink:href="#linear-gradient" y1="15.833" y2="79.92"/><path d="m14 35v4a1 1 0 0 0 2 0v-4a1 1 0 0 0 -2 0z" fill="url(#linear-gradient)"/><path d="m21 34a1 1 0 0 0 -1 1v4a1 1 0 0 0 2 0v-4a1 1 0 0 0 -1-1z" fill="url(#linear-gradient-2)"/><path d="m62.707 36.293a1 1 0 0 0 -1.414 0l-3.534 3.534-18.881-7.553a6.991 6.991 0 0 0 .122-1.274h19a1 1 0 0 0 .781-.375l4-5a1 1 0 1 0 -1.562-1.25l-3.699 4.625h-18.815a6.99 6.99 0 0 0 -1.293-2.433l21.916-7.623a1 1 0 0 0 .59-.551l3-7a1 1 0 1 0 -1.838-.787l-2.825 6.594-22.579 7.854a6.972 6.972 0 0 0 -9.885 2.728l-2.491-6.22 32.067-12.631a1 1 0 0 0 .4-.29l5-6a1 1 0 0 0 -.644-1.633l-8-1a1 1 0 0 0 -.248 1.984l6.185.773-3.66 4.398-31.841 12.537-2.766-6.91 14.523-4.842.013-.007h.012l11-4a1 1 0 1 0 -.684-1.879l-7.651 2.781 1.774-2.218a1 1 0 0 0 -.616-1.611l-6-1a1.013 1.013 0 0 0 -.63.1l-14.7 7.726a3.968 3.968 0 0 0 -4.758.668l-4.337 4.339a4 4 0 0 0 .428 6.028l1.568 1.176-4.549 6.368a1 1 0 0 0 -.081 1.028l1.7 3.406-5.568 6.5a1 1 0 0 0 .595 1.637l4.932.822-1.734 6.946a1.009 1.009 0 0 0 -.03.242v2a4 4 0 0 0 4 4h8v10a1 1 0 0 0 2 0v-11a1 1 0 0 0 -1-1h-9a2 2 0 0 1 -2-2v-1.877l1.97-7.881a1 1 0 0 0 -.806-1.229l-4.251-.713 4.846-5.65a1 1 0 0 0 .135-1.1l-1.73-3.459 4.172-5.84 13.69 10.269a7 7 0 0 0 6.7 6.467l22.809 11.9a1 1 0 0 0 .465.113 1.015 1.015 0 0 0 .275-.038l7-2a1 1 0 0 0 .557-1.517l-3.545-5.318 3.42-3.42a1 1 0 0 0 0-1.414zm-30.54-34.251 3.987.664-2.754 3.439-14.351 4.785-.431-1.077a4.017 4.017 0 0 0 -.274-.547zm-22.8 15.233a2 2 0 0 1 -.214-3.015l4.337-4.336a1.966 1.966 0 0 1 1.4-.587 2.088 2.088 0 0 1 .416.042 1.97 1.97 0 0 1 1.455 1.221l6.986 17.465zm17.633 13.725a5 5 0 1 1 5 5 5.006 5.006 0 0 1 -5-5zm28.109 16.929-20.231-10.555a7.037 7.037 0 0 0 3.354-3.2l19.108 7.639 3.068 4.6z" fill="url(#linear-gradient-3)"/><path d="m57.949 54.684a1 1 0 0 0 -1.9.633l1.564 4.683h-5.275l-16.338-12.494v-4.506a1 1 0 0 0 -.293-.707l-3-3a1 1 0 0 0 -1.414 0l-3 3a1 1 0 0 0 -.293.707v12a1 1 0 0 0 .105.447l3 6a1 1 0 0 0 1.789 0l3-6a1 1 0 0 0 .106-.447v-4.977l15.393 11.771a1 1 0 0 0 .607.206h7a1 1 0 0 0 .949-1.316zm-23.949.08-2 4-2-4v-11.35l2-2 2 2z" fill="url(#linear-gradient-4)"/></svg>