<svg id="Capa_1" enable-background="new 0 0 512 512" height="512" viewBox="0 0 512 512" width="512" xmlns="http://www.w3.org/2000/svg"><g><path d="m121 373.538c-2.428 0-4.801.233-7.108.657 9.081-15.606 19.846-23.959 20.15-24.19 4.409-3.301 5.319-9.55 2.03-13.972-3.295-4.432-9.561-5.351-13.992-2.056-1.398 1.04-34.116 25.884-39.821 72.617-.32 2.013-.49 4.074-.49 6.175 0 21.632 17.599 39.231 39.231 39.231s39.23-17.599 39.23-39.231c.001-21.632-17.598-39.231-39.23-39.231zm0 58.462c-10.604 0-19.231-8.627-19.231-19.231s8.627-19.231 19.231-19.231 19.23 8.627 19.23 19.231c.001 10.604-8.626 19.231-19.23 19.231z"/><path d="m391 272c-7.865 0-15.552.769-22.999 2.221 5.161-13.376 7.999-27.897 7.999-43.071 0-66.168-53.832-120-120-120s-120 53.832-120 120c0 15.174 2.838 29.695 7.999 43.071-7.447-1.452-15.134-2.221-22.999-2.221-66.168 0-120 53.832-120 120s53.832 120 120 120 120-53.832 120-120c0-15.174-2.838-29.695-7.999-43.071 7.447 1.451 15.134 2.221 22.999 2.221s15.552-.769 22.999-2.221c-5.161 13.376-7.999 27.897-7.999 43.071 0 66.168 53.832 120 120 120s120-53.832 120-120-53.832-120-120-120zm-270 210c-49.626 0-90-40.374-90-90s40.374-90 90-90 90 40.374 90 90-40.374 90-90 90zm135-160.85c-49.626 0-90-40.374-90-90s40.374-90 90-90 90 40.374 90 90-40.374 90-90 90zm135 160.85c-49.626 0-90-40.374-90-90s40.374-90 90-90 90 40.374 90 90-40.374 90-90 90z"/><path d="m415.161 382.607c4.324-5.341 6.922-12.134 6.922-19.525 0-17.139-13.944-31.082-31.083-31.082s-31.082 13.943-31.082 31.082c0 7.391 2.597 14.184 6.921 19.525-8.981 7.135-14.756 18.14-14.756 30.475 0 21.46 17.458 38.918 38.917 38.918s38.918-17.458 38.918-38.918c-.001-12.335-5.776-23.34-14.757-30.475zm-24.161-30.607c6.111 0 11.083 4.971 11.083 11.082s-4.972 11.083-11.083 11.083-11.082-4.972-11.082-11.083c-.001-6.111 4.971-11.082 11.082-11.082zm0 80c-10.431 0-18.917-8.487-18.917-18.918s8.486-18.917 18.917-18.917 18.918 8.486 18.918 18.917c-.001 10.431-8.487 18.918-18.918 18.918z"/><path d="m282.398 241.636h-2.72c.145-24.315.226-50.792-.074-54.385-.621-7.456-5.064-13.524-11.32-15.461-6.186-1.916-12.804.526-17.698 6.531-4.143 5.082-27.078 45.884-39.658 68.444-3.717 6.666 1.101 14.871 8.733 14.871h39.881c-.028 3.826-.099 12.491-.156 19.434-.046 5.521 4.392 10.032 9.913 10.08h.001c5.524.048 10.04-4.389 10.086-9.913.055-6.58.123-14.829.158-19.601h2.854c5.523 0 10-4.477 10-10s-4.477-10-10-10zm-22.724 0h-23.085c8.829-15.813 17.496-31.038 23.219-40.686.017 10.059-.042 25.096-.134 40.686z"/><path d="m256 80c8.284 0 15-6.716 15-15v-50c0-8.284-6.716-15-15-15s-15 6.716-15 15v50c0 8.284 6.716 15 15 15z"/><path d="m316 90c8.284 0 15-6.716 15-15v-40c0-8.284-6.716-15-15-15s-15 6.716-15 15v40c0 8.284 6.716 15 15 15z"/><path d="m196 90c8.284 0 15-6.716 15-15v-40c0-8.284-6.716-15-15-15s-15 6.716-15 15v40c0 8.284 6.716 15 15 15z"/></g></svg>